<svg width="87" height="16" viewBox="0 0 87 16" fill="none" xmlns="http://www.w3.org/2000/svg">
<path d="M75.6344 15.7592L77.3417 6.15044C77.3855 5.94616 77.3563 5.79294 77.2541 5.6908C77.1666 5.57406 77.0134 5.48651 76.7945 5.42814C76.5756 5.35518 76.2984 5.28952 75.9628 5.23115L75.6344 5.18737L75.7658 4.53074H79.0927L78.5018 7.87959L78.5674 8.07658L77.2323 15.7592H75.6344ZM84.4771 12.5855C84.4334 12.819 84.3896 13.0451 84.3458 13.264C84.3166 13.4829 84.2875 13.6799 84.2583 13.855C84.2437 14.0155 84.2364 14.1614 84.2364 14.2927C84.2364 14.5554 84.2947 14.7524 84.4115 14.8837C84.5428 15.0004 84.7398 15.0588 85.0025 15.0588C85.2067 15.0588 85.411 15.0296 85.6153 14.9713C85.8196 14.8983 86.002 14.8253 86.1625 14.7524C86.3376 14.6648 86.469 14.6065 86.5565 14.5773L86.3814 15.3215C86.2647 15.409 86.1114 15.5039 85.9218 15.606C85.7321 15.7082 85.5205 15.7884 85.287 15.8468C85.0535 15.9051 84.8128 15.9343 84.5647 15.9343C84.1853 15.9343 83.857 15.876 83.5797 15.7592C83.3025 15.6279 83.0763 15.4382 82.9012 15.1901C82.7407 14.9275 82.6605 14.5992 82.6605 14.2052C82.6605 14.0447 82.675 13.8696 82.7042 13.6799C82.7334 13.4756 82.7699 13.2494 82.8137 13.0014C82.8574 12.7387 82.9085 12.4469 82.9669 12.1258L83.6673 8.44867C83.7257 8.11306 83.7767 7.80663 83.8205 7.52938C83.8643 7.23754 83.8862 6.953 83.8862 6.67575C83.8862 6.23799 83.7767 5.88779 83.5579 5.62513C83.339 5.34789 82.9742 5.20926 82.4635 5.20926C81.9382 5.20926 81.4347 5.37707 80.9532 5.71268C80.4863 6.03371 80.012 6.50794 79.5305 7.1354C79.0635 7.76285 78.5747 8.53622 78.064 9.45551L77.7357 8.95209C78.2318 7.98903 78.7425 7.15729 79.2678 6.45687C79.7931 5.75646 80.3476 5.22385 80.9313 4.85906C81.5296 4.49426 82.1789 4.31186 82.8793 4.31186C83.7111 4.31186 84.3458 4.53803 84.7836 4.99038C85.2359 5.42814 85.4621 6.01912 85.4621 6.7633C85.4621 7.01137 85.4402 7.28132 85.3964 7.57315C85.3673 7.86499 85.3235 8.17142 85.2651 8.49245L84.4771 12.5855Z" fill="url(#paint0_radial_7386_32100)"/>
<path d="M71.9011 12.0164C72.0033 11.7246 72.0908 11.4181 72.1638 11.0971C72.2367 10.7761 72.2878 10.4551 72.317 10.134C72.3608 9.81302 72.3827 9.49199 72.3827 9.17097C72.3827 8.32464 72.2586 7.60234 72.0106 7.00407C71.7625 6.39121 71.4123 5.92427 70.96 5.60324C70.5222 5.26763 69.9823 5.09982 69.3402 5.09982C68.8733 5.09982 68.4428 5.18008 68.0489 5.34059C67.6695 5.5011 67.3266 5.72728 67.0201 6.01911C66.7137 6.29636 66.4437 6.63198 66.2103 7.02596C65.9914 7.41994 65.8017 7.83581 65.6412 8.27357C65.539 8.56541 65.4515 8.87184 65.3785 9.19286C65.3056 9.51388 65.2472 9.8422 65.2034 10.1778C65.1743 10.4988 65.1597 10.8199 65.1597 11.1409C65.1597 11.9726 65.2764 12.6949 65.5099 13.3078C65.7579 13.9206 66.1081 14.3949 66.5605 14.7305C67.0274 15.0515 67.5746 15.212 68.2021 15.212C68.669 15.212 69.0922 15.1318 69.4716 14.9713C69.8656 14.7962 70.2158 14.57 70.5222 14.2927C70.8286 14.0009 71.0913 13.6653 71.3102 13.2859C71.5436 12.8919 71.7406 12.4687 71.9011 12.0164ZM63.4743 10.8563C63.4743 10.1559 63.5618 9.4847 63.7369 8.84265C63.9266 8.18602 64.1966 7.58775 64.5468 7.04785C64.897 6.49335 65.3129 6.01182 65.7944 5.60324C66.2759 5.18008 66.8158 4.85906 67.4141 4.64018C68.0124 4.4213 68.6544 4.31186 69.3402 4.31186C70.2741 4.31186 71.0913 4.53074 71.7917 4.9685C72.5067 5.40625 73.0612 6.01182 73.4552 6.78519C73.8637 7.55856 74.068 8.44867 74.068 9.45551C74.068 10.1559 73.9732 10.8345 73.7835 11.4911C73.6084 12.1331 73.3457 12.7314 72.9955 13.2859C72.6453 13.8258 72.2294 14.3 71.7479 14.7086C71.2664 15.1172 70.7265 15.4382 70.1282 15.6717C69.5299 15.8906 68.8879 16 68.2021 16C67.2828 16 66.4656 15.7811 65.7506 15.3434C65.0356 14.9056 64.4738 14.3 64.0653 13.5267C63.6713 12.7387 63.4743 11.8486 63.4743 10.8563Z" fill="url(#paint1_radial_7386_32100)"/>
<path d="M45.415 15.7592L47.1223 6.15044C47.1661 5.94616 47.1369 5.79294 47.0347 5.6908C46.9472 5.57406 46.794 5.48651 46.5751 5.42814C46.3562 5.35518 46.079 5.28952 45.7434 5.23115L45.415 5.18737L45.5464 4.53074H48.8733L48.2824 7.87959L48.348 8.07658L47.0129 15.7592H45.415ZM60.3645 12.5855C60.3061 12.819 60.255 13.0451 60.2113 13.264C60.1821 13.4829 60.1529 13.6799 60.1237 13.855C60.1091 14.0155 60.1018 14.1614 60.1018 14.2927C60.1018 14.5554 60.1602 14.7524 60.2769 14.8837C60.4083 15.0004 60.6052 15.0588 60.8679 15.0588C61.0868 15.0588 61.2911 15.0296 61.4808 14.9713C61.685 14.8983 61.8674 14.8253 62.028 14.7524C62.2031 14.6648 62.3344 14.6065 62.4219 14.5773L62.2687 15.3215C62.152 15.409 61.9915 15.5039 61.7872 15.606C61.5975 15.7082 61.3859 15.7884 61.1524 15.8468C60.9336 15.9051 60.6928 15.9343 60.4301 15.9343C60.0653 15.9343 59.737 15.876 59.4452 15.7592C59.1679 15.6279 58.9491 15.4382 58.7885 15.1901C58.628 14.9275 58.5478 14.5992 58.5478 14.2052C58.5478 14.0447 58.5551 13.8696 58.5697 13.6799C58.5988 13.4756 58.6353 13.2494 58.6791 13.0014C58.7229 12.7387 58.774 12.4469 58.8323 12.1258L59.5327 8.44867C59.6057 8.11306 59.6568 7.80663 59.6859 7.52938C59.7297 7.23754 59.7516 6.953 59.7516 6.67575C59.7516 6.23799 59.6568 5.88779 59.4671 5.62513C59.292 5.34789 58.9709 5.20926 58.504 5.20926C58.0225 5.20926 57.5482 5.37707 57.0813 5.71268C56.6144 6.03371 56.1474 6.50794 55.6805 7.1354C55.2281 7.76285 54.7539 8.53622 54.2577 9.45551L53.9075 8.95209C54.4183 7.97443 54.9217 7.14269 55.4178 6.45687C55.9285 5.75646 56.4611 5.22385 57.0156 4.85906C57.5847 4.49426 58.2195 4.31186 58.9199 4.31186C59.4306 4.31186 59.8684 4.414 60.2331 4.61829C60.5979 4.82258 60.8752 5.10712 61.0649 5.47192C61.2546 5.83672 61.3494 6.26718 61.3494 6.7633C61.3494 7.01137 61.3275 7.28132 61.2838 7.57315C61.24 7.86499 61.1962 8.17142 61.1524 8.49245L60.3645 12.5855ZM51.8063 15.7592L53.1415 8.44867C53.1998 8.11306 53.2436 7.80663 53.2728 7.52938C53.3166 7.23754 53.3385 6.96029 53.3385 6.69764C53.3385 6.24529 53.2436 5.88779 53.0539 5.62513C52.8788 5.34789 52.5651 5.20926 52.1127 5.20926C51.6166 5.20926 51.1351 5.37707 50.6681 5.71268C50.2158 6.03371 49.7561 6.50794 49.2892 7.1354C48.8369 7.76285 48.3626 8.53622 47.8665 9.45551L47.5163 8.95209C48.027 7.97443 48.5304 7.14269 49.0265 6.45687C49.5227 5.75646 50.048 5.22385 50.6025 4.85906C51.1716 4.49426 51.799 4.31186 52.4848 4.31186C53.0101 4.31186 53.4479 4.414 53.7981 4.61829C54.1629 4.82258 54.4401 5.10712 54.6298 5.47192C54.8195 5.83672 54.9144 6.26718 54.9144 6.7633C54.9144 6.89463 54.9071 7.03325 54.8925 7.17917C54.8925 7.3105 54.8852 7.44912 54.8706 7.59504C54.856 7.72637 54.8341 7.87229 54.8049 8.0328C54.7904 8.17872 54.7685 8.33193 54.7393 8.49245L53.3822 15.7592H51.8063Z" fill="url(#paint2_radial_7386_32100)"/>
<path d="M26.917 15.7592L28.6243 6.15044C28.668 5.94616 28.6388 5.79294 28.5367 5.6908C28.4491 5.57406 28.2959 5.48651 28.0771 5.42814C27.8582 5.35518 27.5809 5.28952 27.2453 5.23115L26.917 5.18737L27.0483 4.53074H30.3753L29.7843 7.87959L29.85 8.07658L28.5148 15.7592H26.917ZM41.8664 12.5855C41.8081 12.819 41.757 13.0451 41.7132 13.264C41.684 13.4829 41.6548 13.6799 41.6257 13.855C41.6111 14.0155 41.6038 14.1614 41.6038 14.2927C41.6038 14.5554 41.6621 14.7524 41.7789 14.8837C41.9102 15.0004 42.1072 15.0588 42.3698 15.0588C42.5887 15.0588 42.793 15.0296 42.9827 14.9713C43.187 14.8983 43.3694 14.8253 43.5299 14.7524C43.705 14.6648 43.8363 14.6065 43.9239 14.5773L43.7707 15.3215C43.6539 15.409 43.4934 15.5039 43.2891 15.606C43.0994 15.7082 42.8879 15.7884 42.6544 15.8468C42.4355 15.9051 42.1947 15.9343 41.9321 15.9343C41.5673 15.9343 41.239 15.876 40.9471 15.7592C40.6699 15.6279 40.451 15.4382 40.2905 15.1901C40.13 14.9275 40.0497 14.5992 40.0497 14.2052C40.0497 14.0447 40.057 13.8696 40.0716 13.6799C40.1008 13.4756 40.1373 13.2494 40.1811 13.0014C40.2248 12.7387 40.2759 12.4469 40.3343 12.1258L41.0347 8.44867C41.1076 8.11306 41.1587 7.80663 41.1879 7.52938C41.2317 7.23754 41.2536 6.953 41.2536 6.67575C41.2536 6.23799 41.1587 5.88779 40.969 5.62513C40.7939 5.34789 40.4729 5.20926 40.006 5.20926C39.5244 5.20926 39.0502 5.37707 38.5832 5.71268C38.1163 6.03371 37.6494 6.50794 37.1824 7.1354C36.7301 7.76285 36.2558 8.53622 35.7597 9.45551L35.4095 8.95209C35.9202 7.97443 36.4236 7.14269 36.9198 6.45687C37.4305 5.75646 37.9631 5.22385 38.5176 4.85906C39.0867 4.49426 39.7214 4.31186 40.4218 4.31186C40.9325 4.31186 41.3703 4.414 41.7351 4.61829C42.0999 4.82258 42.3771 5.10712 42.5668 5.47192C42.7565 5.83672 42.8514 6.26718 42.8514 6.7633C42.8514 7.01137 42.8295 7.28132 42.7857 7.57315C42.7419 7.86499 42.6982 8.17142 42.6544 8.49245L41.8664 12.5855ZM33.3083 15.7592L34.6434 8.44867C34.7018 8.11306 34.7456 7.80663 34.7747 7.52938C34.8185 7.23754 34.8404 6.96029 34.8404 6.69764C34.8404 6.24529 34.7456 5.88779 34.5559 5.62513C34.3808 5.34789 34.067 5.20926 33.6147 5.20926C33.1186 5.20926 32.637 5.37707 32.1701 5.71268C31.7177 6.03371 31.2581 6.50794 30.7912 7.1354C30.3388 7.76285 29.8646 8.53622 29.3684 9.45551L29.0182 8.95209C29.529 7.97443 30.0324 7.14269 30.5285 6.45687C31.0246 5.75646 31.5499 5.22385 32.1044 4.85906C32.6735 4.49426 33.301 4.31186 33.9868 4.31186C34.5121 4.31186 34.9499 4.414 35.3001 4.61829C35.6649 4.82258 35.9421 5.10712 36.1318 5.47192C36.3215 5.83672 36.4163 6.26718 36.4163 6.7633C36.4163 6.89463 36.409 7.03325 36.3945 7.17917C36.3945 7.3105 36.3872 7.44912 36.3726 7.59504C36.358 7.72637 36.3361 7.87229 36.3069 8.0328C36.2923 8.17872 36.2704 8.33193 36.2412 8.49245L34.8842 15.7592H33.3083Z" fill="url(#paint3_radial_7386_32100)"/>
<path d="M23.1837 12.0164C23.2858 11.7246 23.3734 11.4181 23.4463 11.0971C23.5193 10.7761 23.5704 10.4551 23.5995 10.134C23.6433 9.81302 23.6652 9.49199 23.6652 9.17097C23.6652 8.32464 23.5412 7.60234 23.2931 7.00407C23.0451 6.39121 22.6948 5.92427 22.2425 5.60324C21.8047 5.26763 21.2648 5.09982 20.6228 5.09982C20.1559 5.09982 19.7254 5.18008 19.3314 5.34059C18.952 5.5011 18.6091 5.72728 18.3027 6.01911C17.9962 6.29636 17.7263 6.63198 17.4928 7.02596C17.2739 7.41994 17.0842 7.83581 16.9237 8.27357C16.8216 8.56541 16.734 8.87184 16.6611 9.19286C16.5881 9.51388 16.5298 9.8422 16.486 10.1778C16.4568 10.4988 16.4422 10.8199 16.4422 11.1409C16.4422 11.9726 16.5589 12.6949 16.7924 13.3078C17.0405 13.9206 17.3907 14.3949 17.843 14.7305C18.31 15.0515 18.8572 15.212 19.4846 15.212C19.9516 15.212 20.3747 15.1318 20.7541 14.9713C21.1481 14.7962 21.4983 14.57 21.8047 14.2927C22.1112 14.0009 22.3738 13.6653 22.5927 13.2859C22.8262 12.8919 23.0232 12.4687 23.1837 12.0164ZM14.7568 10.8563C14.7568 10.1559 14.8444 9.4847 15.0195 8.84265C15.2092 8.18602 15.4791 7.58775 15.8293 7.04785C16.1796 6.49335 16.5954 6.01182 17.077 5.60324C17.5585 5.18008 18.0984 4.85906 18.6967 4.64018C19.2949 4.4213 19.937 4.31186 20.6228 4.31186C21.5567 4.31186 22.3738 4.53074 23.0742 4.9685C23.7892 5.40625 24.3437 6.01182 24.7377 6.78519C25.1463 7.55856 25.3506 8.44867 25.3506 9.45551C25.3506 10.1559 25.2557 10.8345 25.066 11.4911C24.8909 12.1331 24.6283 12.7314 24.2781 13.2859C23.9279 13.8258 23.512 14.3 23.0305 14.7086C22.5489 15.1172 22.009 15.4382 21.4108 15.6717C20.8125 15.8906 20.1704 16 19.4846 16C18.5653 16 17.7482 15.7811 17.0332 15.3434C16.3182 14.9056 15.7564 14.3 15.3478 13.5267C14.9538 12.7387 14.7568 11.8486 14.7568 10.8563Z" fill="url(#paint4_radial_7386_32100)"/>
<path d="M6.80714 15.1464C7.52214 15.1464 8.17148 15.037 8.75516 14.8181C9.35343 14.5992 9.88603 14.2928 10.353 13.8988C10.8199 13.4902 11.2212 13.016 11.5568 12.4761C11.907 11.9216 12.1989 11.3233 12.4323 10.6813L13.1984 11.1409C12.8336 12.104 12.3448 12.9503 11.7319 13.6799C11.1336 14.4095 10.4113 14.9786 9.56501 15.3872C8.73327 15.7812 7.78479 15.9782 6.71958 15.9782C5.74192 15.9782 4.84452 15.8031 4.02737 15.4529C3.21022 15.1026 2.49522 14.6065 1.88236 13.9645C1.28409 13.3078 0.817149 12.5418 0.481535 11.6662C0.160512 10.7907 0 9.82767 0 8.77705C0 7.7848 0.131327 6.85091 0.393982 5.9754C0.656637 5.09988 1.02873 4.29732 1.51026 3.56773C1.9918 2.83813 2.56818 2.21068 3.23941 1.68537C3.91064 1.14547 4.65483 0.729597 5.47197 0.437758C6.28912 0.145919 7.16464 0 8.09852 0C8.79893 0 9.41909 0.0875516 9.95899 0.262655C10.5135 0.437758 10.9877 0.685821 11.3817 1.00684C11.7903 1.32787 12.1259 1.69266 12.3885 2.10124C12.6658 2.49522 12.8701 2.91839 13.0014 3.37074L12.5418 3.30507L13.3735 0.218879H14.2271L13.4392 4.64023H12.5855C12.4396 3.95441 12.1843 3.32696 11.8195 2.75787C11.4693 2.1742 10.9877 1.70726 10.3749 1.35705C9.762 1.00684 8.99592 0.83174 8.07663 0.83174C7.34704 0.83174 6.66122 0.963067 6.01917 1.22572C5.37713 1.48838 4.79345 1.86777 4.26814 2.36389C3.75742 2.84543 3.31237 3.4291 2.93298 4.11493C2.55359 4.78615 2.26175 5.53764 2.05746 6.36938C1.86777 7.20112 1.77292 8.09123 1.77292 9.0397C1.77292 9.9444 1.88236 10.7688 2.10124 11.513C2.33471 12.2572 2.67032 12.8993 3.10808 13.4392C3.54584 13.9791 4.07844 14.4022 4.7059 14.7087C5.33335 15.0005 6.03376 15.1464 6.80714 15.1464Z" fill="url(#paint5_radial_7386_32100)"/>
<defs>
<radialGradient id="paint0_radial_7386_32100" cx="0" cy="0" r="1" gradientTransform="matrix(-4.53093 9.51572 -8.94228 -4.82149 85.3739 4.82087)" gradientUnits="userSpaceOnUse">
<stop stop-color="#3EC300"/>
<stop offset="1" stop-color="#0046C2"/>
</radialGradient>
<radialGradient id="paint1_radial_7386_32100" cx="0" cy="0" r="1" gradientTransform="matrix(-4.39473 9.56949 -8.67347 -4.84873 72.921 4.82375)" gradientUnits="userSpaceOnUse">
<stop stop-color="#3EC300"/>
<stop offset="1" stop-color="#0046C2"/>
</radialGradient>
<radialGradient id="paint2_radial_7386_32100" cx="0" cy="0" r="1" gradientTransform="matrix(-7.05517 9.51572 -13.9241 -4.82149 60.5806 4.82087)" gradientUnits="userSpaceOnUse">
<stop stop-color="#3EC300"/>
<stop offset="1" stop-color="#0046C2"/>
</radialGradient>
<radialGradient id="paint3_radial_7386_32100" cx="0" cy="0" r="1" gradientTransform="matrix(-7.05517 9.51572 -13.9241 -4.82149 42.0825 4.82087)" gradientUnits="userSpaceOnUse">
<stop stop-color="#3EC300"/>
<stop offset="1" stop-color="#0046C2"/>
</radialGradient>
<radialGradient id="paint4_radial_7386_32100" cx="0" cy="0" r="1" gradientTransform="matrix(-4.39473 9.56949 -8.67347 -4.84873 24.2036 4.82375)" gradientUnits="userSpaceOnUse">
<stop stop-color="#3EC300"/>
<stop offset="1" stop-color="#0046C2"/>
</radialGradient>
<radialGradient id="paint5_radial_7386_32100" cx="0" cy="0" r="1" gradientTransform="matrix(-5.90201 13.0819 -11.6482 -6.62841 12.6867 0.699773)" gradientUnits="userSpaceOnUse">
<stop stop-color="#3EC300"/>
<stop offset="1" stop-color="#0046C2"/>
</radialGradient>
</defs>
</svg>
