<svg width="87" height="16" viewBox="0 0 87 16" fill="none" xmlns="http://www.w3.org/2000/svg">
<path d="M75.6348 15.7592L77.342 6.15041C77.3858 5.94612 77.3566 5.79291 77.2545 5.69077C77.1669 5.57403 77.0137 5.48648 76.7948 5.42811C76.5759 5.35515 76.2987 5.28949 75.9631 5.23112L75.6348 5.18734L75.7661 4.53071H79.0931L78.5021 7.87956L78.5677 8.07655L77.2326 15.7592H75.6348ZM84.4775 12.5855C84.4337 12.8189 84.3899 13.0451 84.3462 13.264C84.317 13.4829 84.2878 13.6798 84.2586 13.8549C84.244 14.0155 84.2367 14.1614 84.2367 14.2927C84.2367 14.5554 84.2951 14.7524 84.4118 14.8837C84.5431 15.0004 84.7401 15.0588 85.0028 15.0588C85.2071 15.0588 85.4114 15.0296 85.6157 14.9712C85.8199 14.8983 86.0023 14.8253 86.1628 14.7524C86.3379 14.6648 86.4693 14.6064 86.5568 14.5773L86.3817 15.3214C86.265 15.409 86.1118 15.5038 85.9221 15.606C85.7324 15.7081 85.5208 15.7884 85.2873 15.8467C85.0539 15.9051 84.8131 15.9343 84.565 15.9343C84.1856 15.9343 83.8573 15.8759 83.5801 15.7592C83.3028 15.6279 83.0767 15.4382 82.9015 15.1901C82.741 14.9275 82.6608 14.5991 82.6608 14.2052C82.6608 14.0446 82.6754 13.8695 82.7046 13.6798C82.7337 13.4756 82.7702 13.2494 82.814 13.0013C82.8578 12.7387 82.9088 12.4468 82.9672 12.1258L83.6676 8.44864C83.726 8.11303 83.7771 7.8066 83.8208 7.52935C83.8646 7.23751 83.8865 6.95297 83.8865 6.67572C83.8865 6.23796 83.7771 5.88776 83.5582 5.6251C83.3393 5.34785 82.9745 5.20923 82.4638 5.20923C81.9385 5.20923 81.4351 5.37704 80.9535 5.71265C80.4866 6.03368 80.0123 6.50791 79.5308 7.13537C79.0639 7.76282 78.575 8.53619 78.0643 9.45548L77.736 8.95206C78.2321 7.989 78.7428 7.15725 79.2682 6.45684C79.7935 5.75643 80.348 5.22382 80.9316 4.85903C81.5299 4.49423 82.1793 4.31183 82.8797 4.31183C83.7114 4.31183 84.3461 4.538 84.7839 4.99035C85.2363 5.42811 85.4624 6.01908 85.4624 6.76327C85.4624 7.01134 85.4405 7.28129 85.3968 7.57312C85.3676 7.86496 85.3238 8.17139 85.2654 8.49242L84.4775 12.5855Z" fill="url(#paint0_radial_8188_6664)"/>
<path d="M71.9015 12.0164C72.0036 11.7245 72.0911 11.4181 72.1641 11.0971C72.2371 10.7761 72.2881 10.455 72.3173 10.134C72.3611 9.81299 72.383 9.49196 72.383 9.17094C72.383 8.32461 72.259 7.60231 72.0109 7.00404C71.7628 6.39118 71.4126 5.92424 70.9603 5.60321C70.5225 5.2676 69.9826 5.09979 69.3406 5.09979C68.8736 5.09979 68.4432 5.18005 68.0492 5.34056C67.6698 5.50107 67.3269 5.72725 67.0205 6.01908C66.714 6.29633 66.4441 6.63194 66.2106 7.02593C65.9917 7.41991 65.802 7.83578 65.6415 8.27354C65.5394 8.56538 65.4518 8.87181 65.3789 9.19283C65.3059 9.51385 65.2475 9.84217 65.2038 10.1778C65.1746 10.4988 65.16 10.8198 65.16 11.1409C65.16 11.9726 65.2767 12.6949 65.5102 13.3078C65.7583 13.9206 66.1085 14.3949 66.5608 14.7305C67.0277 15.0515 67.5749 15.212 68.2024 15.212C68.6693 15.212 69.0925 15.1317 69.4719 14.9712C69.8659 14.7961 70.2161 14.57 70.5225 14.2927C70.8289 14.0009 71.0916 13.6653 71.3105 13.2859C71.544 12.8919 71.7409 12.4687 71.9015 12.0164ZM63.4746 10.8563C63.4746 10.1559 63.5622 9.48467 63.7373 8.84262C63.927 8.18599 64.1969 7.58772 64.5471 7.04782C64.8973 6.49332 65.3132 6.01179 65.7947 5.60321C66.2763 5.18005 66.8162 4.85903 67.4144 4.64015C68.0127 4.42127 68.6547 4.31183 69.3406 4.31183C70.2745 4.31183 71.0916 4.53071 71.792 4.96846C72.507 5.40622 73.0615 6.01179 73.4555 6.78516C73.8641 7.55853 74.0684 8.44864 74.0684 9.45548C74.0684 10.1559 73.9735 10.8344 73.7838 11.4911C73.6087 12.1331 73.346 12.7314 72.9958 13.2859C72.6456 13.8258 72.2298 14.3 71.7482 14.7086C71.2667 15.1172 70.7268 15.4382 70.1285 15.6716C69.5303 15.8905 68.8882 16 68.2024 16C67.2831 16 66.466 15.7811 65.751 15.3433C65.0359 14.9056 64.4742 14.3 64.0656 13.5266C63.6716 12.7387 63.4746 11.8486 63.4746 10.8563Z" fill="url(#paint1_radial_8188_6664)"/>
<path d="M45.415 15.7592L47.1223 6.15041C47.1661 5.94612 47.1369 5.79291 47.0347 5.69077C46.9472 5.57403 46.794 5.48648 46.5751 5.42811C46.3562 5.35515 46.079 5.28949 45.7434 5.23112L45.415 5.18734L45.5464 4.53071H48.8733L48.2824 7.87956L48.348 8.07655L47.0129 15.7592H45.415ZM60.3645 12.5855C60.3061 12.8189 60.255 13.0451 60.2113 13.264C60.1821 13.4829 60.1529 13.6798 60.1237 13.8549C60.1091 14.0155 60.1018 14.1614 60.1018 14.2927C60.1018 14.5554 60.1602 14.7524 60.2769 14.8837C60.4083 15.0004 60.6052 15.0588 60.8679 15.0588C61.0868 15.0588 61.2911 15.0296 61.4808 14.9712C61.685 14.8983 61.8674 14.8253 62.028 14.7524C62.2031 14.6648 62.3344 14.6064 62.4219 14.5773L62.2687 15.3214C62.152 15.409 61.9915 15.5038 61.7872 15.606C61.5975 15.7081 61.3859 15.7884 61.1524 15.8467C60.9336 15.9051 60.6928 15.9343 60.4301 15.9343C60.0653 15.9343 59.737 15.8759 59.4452 15.7592C59.1679 15.6279 58.9491 15.4382 58.7885 15.1901C58.628 14.9275 58.5478 14.5991 58.5478 14.2052C58.5478 14.0446 58.5551 13.8695 58.5697 13.6798C58.5988 13.4756 58.6353 13.2494 58.6791 13.0013C58.7229 12.7387 58.774 12.4468 58.8323 12.1258L59.5327 8.44864C59.6057 8.11303 59.6568 7.8066 59.6859 7.52935C59.7297 7.23751 59.7516 6.95297 59.7516 6.67572C59.7516 6.23796 59.6568 5.88776 59.4671 5.6251C59.292 5.34785 58.9709 5.20923 58.504 5.20923C58.0225 5.20923 57.5482 5.37704 57.0813 5.71265C56.6144 6.03368 56.1474 6.50791 55.6805 7.13537C55.2281 7.76282 54.7539 8.53619 54.2577 9.45548L53.9075 8.95206C54.4183 7.9744 54.9217 7.14266 55.4178 6.45684C55.9285 5.75643 56.4611 5.22382 57.0156 4.85903C57.5847 4.49423 58.2195 4.31183 58.9199 4.31183C59.4306 4.31183 59.8684 4.41397 60.2331 4.61826C60.5979 4.82255 60.8752 5.10709 61.0649 5.47189C61.2546 5.83668 61.3494 6.26715 61.3494 6.76327C61.3494 7.01134 61.3275 7.28129 61.2838 7.57312C61.24 7.86496 61.1962 8.17139 61.1524 8.49242L60.3645 12.5855ZM51.8063 15.7592L53.1415 8.44864C53.1998 8.11303 53.2436 7.8066 53.2728 7.52935C53.3166 7.23751 53.3385 6.96026 53.3385 6.69761C53.3385 6.24526 53.2436 5.88776 53.0539 5.6251C52.8788 5.34785 52.5651 5.20923 52.1127 5.20923C51.6166 5.20923 51.1351 5.37704 50.6681 5.71265C50.2158 6.03368 49.7561 6.50791 49.2892 7.13537C48.8369 7.76282 48.3626 8.53619 47.8665 9.45548L47.5163 8.95206C48.027 7.9744 48.5304 7.14266 49.0265 6.45684C49.5227 5.75643 50.048 5.22382 50.6025 4.85903C51.1716 4.49423 51.799 4.31183 52.4848 4.31183C53.0101 4.31183 53.4479 4.41397 53.7981 4.61826C54.1629 4.82255 54.4401 5.10709 54.6298 5.47189C54.8195 5.83668 54.9144 6.26715 54.9144 6.76327C54.9144 6.8946 54.9071 7.03322 54.8925 7.17914C54.8925 7.31047 54.8852 7.44909 54.8706 7.59501C54.856 7.72634 54.8341 7.87226 54.8049 8.03277C54.7904 8.17869 54.7685 8.3319 54.7393 8.49242L53.3822 15.7592H51.8063Z" fill="url(#paint2_radial_8188_6664)"/>
<path d="M26.917 15.7592L28.6243 6.15041C28.668 5.94612 28.6388 5.79291 28.5367 5.69077C28.4491 5.57403 28.2959 5.48648 28.0771 5.42811C27.8582 5.35515 27.5809 5.28949 27.2453 5.23112L26.917 5.18734L27.0483 4.53071H30.3753L29.7843 7.87956L29.85 8.07655L28.5148 15.7592H26.917ZM41.8664 12.5855C41.8081 12.8189 41.757 13.0451 41.7132 13.264C41.684 13.4829 41.6548 13.6798 41.6257 13.8549C41.6111 14.0155 41.6038 14.1614 41.6038 14.2927C41.6038 14.5554 41.6621 14.7524 41.7789 14.8837C41.9102 15.0004 42.1072 15.0588 42.3698 15.0588C42.5887 15.0588 42.793 15.0296 42.9827 14.9712C43.187 14.8983 43.3694 14.8253 43.5299 14.7524C43.705 14.6648 43.8363 14.6064 43.9239 14.5773L43.7707 15.3214C43.6539 15.409 43.4934 15.5038 43.2891 15.606C43.0994 15.7081 42.8879 15.7884 42.6544 15.8467C42.4355 15.9051 42.1947 15.9343 41.9321 15.9343C41.5673 15.9343 41.239 15.8759 40.9471 15.7592C40.6699 15.6279 40.451 15.4382 40.2905 15.1901C40.13 14.9275 40.0497 14.5991 40.0497 14.2052C40.0497 14.0446 40.057 13.8695 40.0716 13.6798C40.1008 13.4756 40.1373 13.2494 40.1811 13.0013C40.2248 12.7387 40.2759 12.4468 40.3343 12.1258L41.0347 8.44864C41.1076 8.11303 41.1587 7.8066 41.1879 7.52935C41.2317 7.23751 41.2536 6.95297 41.2536 6.67572C41.2536 6.23796 41.1587 5.88776 40.969 5.6251C40.7939 5.34785 40.4729 5.20923 40.006 5.20923C39.5244 5.20923 39.0502 5.37704 38.5832 5.71265C38.1163 6.03368 37.6494 6.50791 37.1824 7.13537C36.7301 7.76282 36.2558 8.53619 35.7597 9.45548L35.4095 8.95206C35.9202 7.9744 36.4236 7.14266 36.9198 6.45684C37.4305 5.75643 37.9631 5.22382 38.5176 4.85903C39.0867 4.49423 39.7214 4.31183 40.4218 4.31183C40.9325 4.31183 41.3703 4.41397 41.7351 4.61826C42.0999 4.82255 42.3771 5.10709 42.5668 5.47189C42.7565 5.83668 42.8514 6.26715 42.8514 6.76327C42.8514 7.01134 42.8295 7.28129 42.7857 7.57312C42.7419 7.86496 42.6982 8.17139 42.6544 8.49242L41.8664 12.5855ZM33.3083 15.7592L34.6434 8.44864C34.7018 8.11303 34.7456 7.8066 34.7747 7.52935C34.8185 7.23751 34.8404 6.96026 34.8404 6.69761C34.8404 6.24526 34.7456 5.88776 34.5559 5.6251C34.3808 5.34785 34.067 5.20923 33.6147 5.20923C33.1186 5.20923 32.637 5.37704 32.1701 5.71265C31.7177 6.03368 31.2581 6.50791 30.7912 7.13537C30.3388 7.76282 29.8646 8.53619 29.3684 9.45548L29.0182 8.95206C29.529 7.9744 30.0324 7.14266 30.5285 6.45684C31.0246 5.75643 31.5499 5.22382 32.1044 4.85903C32.6735 4.49423 33.301 4.31183 33.9868 4.31183C34.5121 4.31183 34.9499 4.41397 35.3001 4.61826C35.6649 4.82255 35.9421 5.10709 36.1318 5.47189C36.3215 5.83668 36.4163 6.26715 36.4163 6.76327C36.4163 6.8946 36.409 7.03322 36.3945 7.17914C36.3945 7.31047 36.3872 7.44909 36.3726 7.59501C36.358 7.72634 36.3361 7.87226 36.3069 8.03277C36.2923 8.17869 36.2704 8.3319 36.2412 8.49242L34.8842 15.7592H33.3083Z" fill="url(#paint3_radial_8188_6664)"/>
<path d="M23.1837 12.0164C23.2858 11.7245 23.3734 11.4181 23.4463 11.0971C23.5193 10.7761 23.5704 10.455 23.5995 10.134C23.6433 9.81299 23.6652 9.49196 23.6652 9.17094C23.6652 8.32461 23.5412 7.60231 23.2931 7.00404C23.0451 6.39118 22.6948 5.92424 22.2425 5.60321C21.8047 5.2676 21.2648 5.09979 20.6228 5.09979C20.1559 5.09979 19.7254 5.18005 19.3314 5.34056C18.952 5.50107 18.6091 5.72725 18.3027 6.01908C17.9962 6.29633 17.7263 6.63194 17.4928 7.02593C17.2739 7.41991 17.0842 7.83578 16.9237 8.27354C16.8216 8.56538 16.734 8.87181 16.6611 9.19283C16.5881 9.51385 16.5298 9.84217 16.486 10.1778C16.4568 10.4988 16.4422 10.8198 16.4422 11.1409C16.4422 11.9726 16.5589 12.6949 16.7924 13.3078C17.0405 13.9206 17.3907 14.3949 17.843 14.7305C18.31 15.0515 18.8572 15.212 19.4846 15.212C19.9516 15.212 20.3747 15.1317 20.7541 14.9712C21.1481 14.7961 21.4983 14.57 21.8047 14.2927C22.1112 14.0009 22.3738 13.6653 22.5927 13.2859C22.8262 12.8919 23.0232 12.4687 23.1837 12.0164ZM14.7568 10.8563C14.7568 10.1559 14.8444 9.48467 15.0195 8.84262C15.2092 8.18599 15.4791 7.58772 15.8293 7.04782C16.1796 6.49332 16.5954 6.01179 17.077 5.60321C17.5585 5.18005 18.0984 4.85903 18.6967 4.64015C19.2949 4.42127 19.937 4.31183 20.6228 4.31183C21.5567 4.31183 22.3738 4.53071 23.0742 4.96846C23.7892 5.40622 24.3437 6.01179 24.7377 6.78516C25.1463 7.55853 25.3506 8.44864 25.3506 9.45548C25.3506 10.1559 25.2557 10.8344 25.066 11.4911C24.8909 12.1331 24.6283 12.7314 24.2781 13.2859C23.9279 13.8258 23.512 14.3 23.0305 14.7086C22.5489 15.1172 22.009 15.4382 21.4108 15.6716C20.8125 15.8905 20.1704 16 19.4846 16C18.5653 16 17.7482 15.7811 17.0332 15.3433C16.3182 14.9056 15.7564 14.3 15.3478 13.5266C14.9538 12.7387 14.7568 11.8486 14.7568 10.8563Z" fill="url(#paint4_radial_8188_6664)"/>
<path d="M6.80714 15.1464C7.52214 15.1464 8.17148 15.037 8.75516 14.8181C9.35343 14.5992 9.88603 14.2928 10.353 13.8988C10.8199 13.4902 11.2212 13.016 11.5568 12.4761C11.907 11.9216 12.1989 11.3233 12.4323 10.6813L13.1984 11.1409C12.8336 12.104 12.3448 12.9503 11.7319 13.6799C11.1336 14.4095 10.4113 14.9786 9.56501 15.3872C8.73327 15.7812 7.78479 15.9782 6.71958 15.9782C5.74192 15.9782 4.84452 15.8031 4.02737 15.4529C3.21022 15.1026 2.49522 14.6065 1.88236 13.9645C1.28409 13.3078 0.817149 12.5418 0.481535 11.6662C0.160512 10.7907 0 9.82767 0 8.77705C0 7.7848 0.131327 6.85091 0.393982 5.9754C0.656637 5.09988 1.02873 4.29732 1.51026 3.56773C1.9918 2.83813 2.56818 2.21068 3.23941 1.68537C3.91064 1.14547 4.65483 0.729597 5.47197 0.437758C6.28912 0.145919 7.16464 0 8.09852 0C8.79893 0 9.41909 0.0875516 9.95899 0.262655C10.5135 0.437758 10.9877 0.685821 11.3817 1.00684C11.7903 1.32787 12.1259 1.69266 12.3885 2.10124C12.6658 2.49522 12.8701 2.91839 13.0014 3.37074L12.5418 3.30507L13.3735 0.218879H14.2271L13.4392 4.64023H12.5855C12.4396 3.95441 12.1843 3.32696 11.8195 2.75787C11.4693 2.1742 10.9877 1.70726 10.3749 1.35705C9.762 1.00684 8.99592 0.83174 8.07663 0.83174C7.34704 0.83174 6.66122 0.963067 6.01917 1.22572C5.37713 1.48838 4.79345 1.86777 4.26814 2.36389C3.75742 2.84543 3.31237 3.4291 2.93298 4.11493C2.55359 4.78615 2.26175 5.53764 2.05746 6.36938C1.86777 7.20112 1.77292 8.09123 1.77292 9.0397C1.77292 9.9444 1.88236 10.7688 2.10124 11.513C2.33471 12.2572 2.67032 12.8993 3.10808 13.4392C3.54584 13.9791 4.07844 14.4022 4.7059 14.7087C5.33335 15.0005 6.03376 15.1464 6.80714 15.1464Z" fill="url(#paint5_radial_8188_6664)"/>
<defs>
<radialGradient id="paint0_radial_8188_6664" cx="0" cy="0" r="1" gradientTransform="matrix(-4.53093 9.51572 -8.94228 -4.82149 85.3743 4.82084)" gradientUnits="userSpaceOnUse">
<stop stop-color="#5DB131"/>
<stop offset="1" stop-color="#4444CC"/>
</radialGradient>
<radialGradient id="paint1_radial_8188_6664" cx="0" cy="0" r="1" gradientTransform="matrix(-4.39473 9.56949 -8.67347 -4.84873 72.9213 4.82372)" gradientUnits="userSpaceOnUse">
<stop stop-color="#5DB131"/>
<stop offset="1" stop-color="#4444CC"/>
</radialGradient>
<radialGradient id="paint2_radial_8188_6664" cx="0" cy="0" r="1" gradientTransform="matrix(-7.05517 9.51572 -13.9241 -4.82149 60.5806 4.82084)" gradientUnits="userSpaceOnUse">
<stop stop-color="#5DB131"/>
<stop offset="1" stop-color="#4444CC"/>
</radialGradient>
<radialGradient id="paint3_radial_8188_6664" cx="0" cy="0" r="1" gradientTransform="matrix(-7.05517 9.51572 -13.9241 -4.82149 42.0825 4.82084)" gradientUnits="userSpaceOnUse">
<stop stop-color="#5DB131"/>
<stop offset="1" stop-color="#4444CC"/>
</radialGradient>
<radialGradient id="paint4_radial_8188_6664" cx="0" cy="0" r="1" gradientTransform="matrix(-4.39473 9.56949 -8.67347 -4.84873 24.2036 4.82372)" gradientUnits="userSpaceOnUse">
<stop stop-color="#5DB131"/>
<stop offset="1" stop-color="#4444CC"/>
</radialGradient>
<radialGradient id="paint5_radial_8188_6664" cx="0" cy="0" r="1" gradientTransform="matrix(-5.90201 13.0819 -11.6482 -6.62841 12.6867 0.699773)" gradientUnits="userSpaceOnUse">
<stop stop-color="#5DB131"/>
<stop offset="1" stop-color="#4444CC"/>
</radialGradient>
</defs>
</svg>
